<svg width="256" height="256" viewBox="0 0 256 256" fill="none" xmlns="http://www.w3.org/2000/svg">
<path d="M219.807 197.757L213.643 175.605C212.873 172.523 209.597 170.789 206.516 171.559C203.433 172.329 201.7 175.605 202.47 178.686L204.781 187.162L177.235 171.366V124.749C177.235 122.63 176.08 120.897 174.347 119.741L134.279 96.626V64.8413L140.444 71.1981C141.6 72.3537 143.141 72.9315 144.49 72.9315C145.839 72.9315 147.379 72.3537 148.536 71.3902C150.847 69.2712 150.847 65.611 148.728 63.2998L132.74 46.9255C131.583 45.5778 130.042 45 128.501 45C126.96 45 125.418 45.5778 124.455 46.7334L108.466 63.1076C106.347 65.4188 106.347 69.0788 108.659 71.1981C110.97 73.3174 114.63 73.3171 116.749 71.006L122.914 64.6492V96.4325L82.4616 119.933C80.7282 120.897 79.5727 122.822 79.5727 124.941V171.558L52.0272 187.354L54.5318 178.878C55.3018 175.796 53.5684 172.713 50.4859 171.751C47.4035 170.981 44.321 172.715 43.3589 175.797L37.1927 197.757C36.8071 199.298 37.0005 200.839 37.7705 202.187C38.5418 203.535 39.8895 204.498 41.2385 204.884L63.584 210.47C64.1618 210.663 64.5461 210.663 64.9317 210.663C67.4363 210.663 69.7475 208.93 70.5173 206.425C71.2872 203.343 69.3617 200.26 66.2794 199.49L57.8047 197.179L85.3502 181.383L125.61 204.692C126.573 205.27 127.537 205.462 128.499 205.462C129.462 205.462 130.426 205.27 131.388 204.692L171.647 181.383L199.196 197.179L190.528 199.298C187.445 200.068 185.52 203.151 186.29 206.233C186.868 208.738 189.372 210.471 191.875 210.471C192.261 210.471 192.839 210.471 193.224 210.279L215.762 204.884C217.303 204.498 218.459 203.535 219.229 202.187C220 200.838 220.192 199.298 219.808 197.757L219.807 197.757ZM91.1304 134.767L122.722 153.066V189.666L90.9385 171.367V134.767H91.1304ZM128.501 143.049L96.7174 124.75L128.501 106.45L160.284 124.75L128.501 143.049ZM134.28 189.666V153.066L166.063 134.766V171.366L134.28 189.666Z" fill="#9692CF"/>
</svg>
