<svg width="256" height="256" viewBox="0 0 256 256" fill="none" xmlns="http://www.w3.org/2000/svg">
<path d="M162.615 83.143H189.163C188.668 82.3183 188.008 81.4936 187.184 80.6701L160.967 54.4513C160.308 53.7922 159.483 53.132 158.494 52.4729V78.8563C158.493 81.3293 160.306 83.143 162.615 83.143Z" fill="#9692CF"/>
<path d="M162.615 94.191C154.206 94.191 147.445 87.4301 147.445 79.0208V50.1646H105.067V63.3563H118.918V77.207H105.067V91.0577H118.918V104.908H105.067L105.068 118.595H118.919V132.445H105.068V146.296H118.919V159.818H105.068V145.967H91.2177V132.116H105.068V118.595H91.2177V104.744H105.068V90.8931H91.2177V77.0424H105.068V63.1917H91.2177V50H79.6755C75.7177 50 72.0898 51.4838 69.2869 54.2869C66.484 57.0901 65 60.7177 65 64.6755V191.808C65 199.888 71.5951 206.483 79.6755 206.483H176.797C184.877 206.483 191.473 199.888 191.473 191.808L191.472 94.1913L162.615 94.191Z" fill="#9692CF"/>
</svg>
