<svg width="256" height="256" viewBox="0 0 256 256" fill="none" xmlns="http://www.w3.org/2000/svg">
<path d="M132.574 53.1803C95.6966 50.6366 61.3165 75.2536 50.9384 111.44C47.4784 123.497 47.851 135.764 48.2507 148.043C48.8289 165.9 54.2512 182.16 64.9742 196.541C68.9088 201.807 73.0808 203.104 79.3191 200.995C84.1387 199.361 88.9136 197.61 93.6952 195.913C100.621 193.463 101.777 190.553 98.3362 184.15C90.254 169.073 84.1821 153.287 81.4407 136.305C80.5779 130.93 77.1715 129.011 71.971 130.808C68.1393 132.133 64.3387 133.543 59.9734 135.114C60.4456 109.637 70.1932 89.5277 91.2961 76.1666C114.774 61.3024 139.363 60.9967 163.134 75.3663C185.051 88.6063 195.265 109.001 195.739 135.089C191.274 133.564 187.339 132.151 183.36 130.873C178.547 129.329 175.312 131.279 174.328 136.205C173.647 139.611 173.109 143.049 172.293 146.421C168.977 160.134 163.567 173.029 156.851 185.41C154.238 190.226 155.436 193.648 160.355 195.458C166.059 197.558 171.771 199.639 177.544 201.514C182.663 203.177 187.185 201.661 190.357 197.292C192.551 194.285 194.59 191.168 196.467 187.954C208.387 167.502 209.46 145.073 206.8 122.525C202.32 84.459 171.091 55.8395 132.573 53.1849L132.574 53.1803Z" fill="#9692CF"/>
</svg>
