<svg width="256" height="256" viewBox="0 0 256 256" fill="none" xmlns="http://www.w3.org/2000/svg">
<path d="M72.6116 120.966C78.0784 120.966 83.3211 118.795 87.187 114.929C91.0516 111.063 93.2232 105.82 93.2232 100.354V86.613C93.2232 79.2494 89.2952 72.4449 82.9174 68.7631C76.5408 65.0813 68.6836 65.0813 62.3058 68.7631C55.9292 72.4449 52 79.2494 52 86.613V100.354C52 105.82 54.1716 111.063 58.0374 114.929C61.9033 118.795 67.146 120.966 72.6116 120.966ZM65.7415 86.6124C65.7415 84.1579 67.0515 81.8897 69.1771 80.6624C71.3027 79.4352 73.9216 79.4352 76.0473 80.6624C78.1729 81.8897 79.4829 84.1579 79.4829 86.6124V100.354C79.4829 102.808 78.1728 105.077 76.0473 106.304C73.9217 107.531 71.3028 107.531 69.1771 106.304C67.0515 105.077 65.7415 102.808 65.7415 100.354V86.6124Z" fill="#9692CF"/>
<path d="M175.67 86.6126C175.67 79.249 171.742 72.4445 165.364 68.7627C158.987 65.0809 151.13 65.0809 144.752 68.7627C138.375 72.4445 134.446 79.249 134.446 86.6126V100.354C134.446 107.718 138.375 114.522 144.752 118.204C151.13 121.886 158.987 121.886 165.364 118.204C171.742 114.522 175.67 107.718 175.67 100.354V86.6126ZM161.929 100.354C161.929 102.809 160.619 105.077 158.494 106.304C156.368 107.531 153.749 107.531 151.623 106.304C149.498 105.077 148.188 102.809 148.188 100.354V86.6126C148.188 84.1581 149.498 81.8899 151.623 80.6627C153.749 79.4354 156.368 79.4354 158.494 80.6627C160.619 81.8899 161.929 84.1581 161.929 86.6126V100.354Z" fill="#9692CF"/>
<path d="M120.707 114.094V72.8706C120.707 70.416 119.397 68.1479 117.271 66.9206C115.146 65.6933 112.527 65.6933 110.401 66.9206C108.276 68.1479 106.966 70.416 106.966 72.8706V114.094C106.966 116.548 108.276 118.816 110.401 120.044C112.527 121.271 115.146 121.271 117.271 120.044C119.397 118.816 120.707 116.548 120.707 114.094Z" fill="#9692CF"/>
<path d="M196.281 66.001C194.459 66.001 192.712 66.7244 191.424 68.0138C190.134 69.302 189.411 71.0493 189.411 72.8711V114.094C189.411 116.549 190.721 118.817 192.847 120.044C194.972 121.272 197.591 121.272 199.717 120.044C201.842 118.817 203.152 116.549 203.152 114.094V72.8711C203.152 71.0492 202.428 69.302 201.14 68.0138C199.851 66.7244 198.104 66.001 196.281 66.001Z" fill="#9692CF"/>
<path d="M93.2232 169.059V155.318C93.2232 147.954 89.2952 141.149 82.9174 137.468C76.5408 133.786 68.6836 133.786 62.3058 137.468C55.9292 141.149 52 147.954 52 155.318V169.059C52 176.423 55.9292 183.227 62.3058 186.909C68.6836 190.591 76.5408 190.591 82.9174 186.909C89.2952 183.227 93.2232 176.423 93.2232 169.059ZM65.7415 169.059V155.318C65.7415 152.863 67.0515 150.595 69.1771 149.368C71.3027 148.14 73.9216 148.14 76.0473 149.368C78.1729 150.595 79.4829 152.863 79.4829 155.318V169.059C79.4829 171.514 78.1728 173.782 76.0473 175.009C73.9217 176.236 71.3028 176.236 69.1771 175.009C67.0515 173.782 65.7415 171.514 65.7415 169.059Z" fill="#9692CF"/>
<path d="M106.965 169.059C106.965 176.423 110.894 183.227 117.271 186.909C123.648 190.591 131.506 190.591 137.882 186.909C144.259 183.227 148.188 176.423 148.188 169.059V155.318C148.188 147.954 144.259 141.149 137.882 137.468C131.506 133.786 123.648 133.786 117.271 137.468C110.894 141.149 106.965 147.954 106.965 155.318V169.059ZM120.707 155.318C120.707 152.863 122.015 150.595 124.141 149.368C126.267 148.14 128.887 148.14 131.012 149.368C133.138 150.595 134.447 152.863 134.447 155.318V169.059C134.447 171.514 133.138 173.782 131.012 175.009C128.887 176.236 126.267 176.236 124.141 175.009C122.015 173.782 120.707 171.514 120.707 169.059V155.318Z" fill="#9692CF"/>
<path d="M196.281 134.705C194.459 134.705 192.712 135.43 191.424 136.718C190.134 138.007 189.411 139.754 189.411 141.577V182.8C189.411 185.254 190.721 187.523 192.847 188.75C194.972 189.977 197.591 189.977 199.717 188.75C201.842 187.523 203.152 185.254 203.152 182.8V141.577C203.152 139.754 202.428 138.007 201.14 136.718C199.851 135.43 198.104 134.705 196.281 134.705Z" fill="#9692CF"/>
<path d="M161.93 141.578V182.801C161.93 185.256 163.239 187.524 165.365 188.751C167.49 189.978 170.111 189.978 172.236 188.751C174.362 187.524 175.671 185.256 175.671 182.801V141.578C175.671 139.123 174.362 136.855 172.236 135.628C170.111 134.401 167.491 134.401 165.365 135.628C163.239 136.855 161.93 139.123 161.93 141.578Z" fill="#9692CF"/>
</svg>
