<svg width="256" height="256" viewBox="0 0 256 256" fill="none" xmlns="http://www.w3.org/2000/svg">
<path d="M80.5946 171.595L37 128L80.5946 84.4054C81.8133 83.1867 83.4674 82.5018 85.191 82.5018C86.9147 82.5018 88.5687 83.1867 89.7874 84.4054L98.9788 93.5968C100.198 94.8155 100.882 96.4681 100.882 98.1917C100.882 99.9168 100.198 101.569 98.9788 102.788L73.7651 128L98.9773 153.213C100.196 154.431 100.881 156.085 100.881 157.809C100.881 159.533 100.196 161.187 98.9773 162.405L89.786 171.597C88.5672 172.816 86.9146 173.499 85.191 173.499C83.4674 173.499 81.8133 172.814 80.5946 171.595V171.595Z" fill="#9692CF"/>
<path d="M166.212 171.595L157.021 162.403C155.802 161.184 155.118 159.532 155.118 157.808C155.118 156.083 155.802 154.431 157.021 153.212L182.235 128L157.023 102.787C155.804 101.569 155.119 99.9147 155.119 98.191C155.119 96.4674 155.804 94.8133 157.023 93.5946L166.214 84.4032C167.433 83.1845 169.085 82.4996 170.809 82.4996C172.534 82.4996 174.187 83.1845 175.405 84.4032L219 128.002L175.405 171.596C174.187 172.815 172.533 173.5 170.809 173.5C169.085 173.5 167.431 172.815 166.212 171.596V171.595Z" fill="#9692CF"/>
<path d="M122.317 206H109.852C107.942 206 106.128 205.16 104.893 203.702C103.657 202.244 103.126 200.315 103.441 198.431L127.275 55.4308C127.527 53.9132 128.311 52.5348 129.484 51.5408C130.658 50.5455 132.147 50 133.686 50H146.151C148.061 50 149.875 50.8401 151.11 52.2982C152.346 53.7564 152.877 55.6846 152.562 57.5692L128.728 200.569C128.476 202.087 127.693 203.465 126.519 204.459C125.345 205.454 123.856 206 122.317 206Z" fill="#9692CF"/>
</svg>
