<svg width="256" height="256" viewBox="0 0 256 256" fill="none" xmlns="http://www.w3.org/2000/svg">
<path d="M128.274 47C110.865 47 95.0948 49.8803 83.1716 54.9383C77.2093 57.468 72.1704 60.5193 68.386 64.3148C64.6016 68.1108 62 72.9777 62 78.295V177.705C62 183.022 64.6016 187.831 68.386 191.627C72.1704 195.423 77.2093 198.476 83.1716 201.004C95.0948 206.062 110.865 209 128.274 209C145.683 209 161.453 206.062 173.377 201.004C179.339 198.475 184.376 195.423 188.162 191.627C191.947 187.831 194.548 183.022 194.548 177.705V78.295C194.548 72.9774 191.947 68.1117 188.162 64.3162C184.378 60.5206 179.339 57.4679 173.377 54.9396C161.453 49.8814 145.683 47.0013 128.274 47.0013V47ZM128.274 58.0462C144.417 58.0462 158.998 60.8533 169.06 65.1216C174.093 67.2558 177.972 69.7689 180.336 72.1407C182.7 74.5112 183.5 76.4965 183.5 78.297C183.5 80.096 182.7 82.0235 180.336 84.3953C177.972 86.7658 174.093 89.2787 169.06 91.4145C158.997 95.6841 144.415 98.5477 128.274 98.5477C112.133 98.5477 97.5501 95.6842 87.4879 91.4145C82.4553 89.2803 78.5762 86.7672 76.2119 84.3953C73.8478 82.0223 73.0478 80.0948 73.0478 78.2956C73.0478 76.4966 73.8478 74.5112 76.2119 72.1394C78.576 69.7689 82.4553 67.256 87.4879 65.1202C97.5515 60.8506 112.133 58.0449 128.274 58.0449V58.0462ZM73.0465 96.1302C75.9949 98.2041 79.4016 99.9955 83.1719 101.595C95.0951 106.654 110.865 109.592 128.274 109.592C145.684 109.592 161.454 106.654 173.377 101.595C177.147 99.9954 180.554 98.2042 183.502 96.1302V111.433C183.502 113.232 182.702 115.16 180.338 117.532C177.974 119.902 174.095 122.415 169.062 124.551C158.999 128.82 144.417 131.684 128.276 131.684C112.135 131.684 97.5521 128.82 87.4898 124.551C82.4572 122.415 78.5781 119.903 76.2139 117.532C73.8498 115.158 73.0498 113.231 73.0498 111.432V96.1289L73.0465 96.1302ZM73.0465 129.208C76 131.294 79.3835 133.123 83.1719 134.731C95.0951 139.789 110.865 142.727 128.274 142.727C145.684 142.727 161.454 139.789 173.377 134.731C177.165 133.123 180.549 131.296 183.502 129.208V144.568C183.502 146.368 182.702 148.295 180.338 150.667C177.974 153.037 174.095 155.55 169.062 157.686C158.999 161.956 144.417 164.819 128.276 164.819C112.135 164.819 97.5521 161.956 87.4898 157.686C82.4572 155.552 78.5781 153.039 76.2139 150.667C73.8498 148.294 73.0498 146.366 73.0498 144.566V129.205L73.0465 129.208ZM73.0465 162.344C76 164.431 79.3835 166.259 83.1719 167.867C95.0951 172.926 110.865 175.863 128.274 175.863C145.684 175.863 161.454 172.925 173.377 167.867C177.165 166.26 180.549 164.432 183.502 162.344V177.705C183.502 179.504 182.702 181.432 180.338 183.803C177.974 186.174 174.095 188.687 169.062 190.823C158.999 195.092 144.417 197.956 128.276 197.956C112.135 197.956 97.5521 195.092 87.4898 190.823C82.4572 188.688 78.5781 186.175 76.2139 183.803C73.8498 181.43 73.0498 179.503 73.0498 177.702V162.342L73.0465 162.344Z" fill="#9692CF"/>
</svg>
