<svg width="256" height="256" viewBox="0 0 256 256" fill="none" xmlns="http://www.w3.org/2000/svg">
<path d="M165.009 66.0909H90.9909C88.0409 65.8227 85.3591 67.9682 85.0909 71.1864V163.171C85.3591 166.121 88.0409 168.535 90.9909 168.267H164.739C167.689 168.535 170.371 166.389 170.639 163.171V71.1864C170.639 67.9682 167.958 65.8227 165.008 66.0909H165.009ZM154.818 151.909H101.182C99.5727 151.909 98.5 150.836 98.5 149.227C98.5 147.618 99.5727 146.545 101.182 146.545H154.818C156.427 146.545 157.5 147.618 157.5 149.227C157.5 150.836 156.427 151.909 154.818 151.909ZM154.818 135.818H101.182C99.5727 135.818 98.5 134.745 98.5 133.136C98.5 131.527 99.5727 130.455 101.182 130.455H154.818C156.427 130.455 157.5 131.527 157.5 133.136C157.5 134.745 156.427 135.818 154.818 135.818ZM154.818 119.727H101.182C99.5727 119.727 98.5 118.655 98.5 117.045C98.5 115.436 99.5727 114.364 101.182 114.364H154.818C156.427 114.364 157.5 115.436 157.5 117.045C157.5 118.655 156.427 119.727 154.818 119.727ZM154.818 103.636H101.182C99.5727 103.636 98.5 102.564 98.5 100.955C98.5 99.3455 99.5727 98.2727 101.182 98.2727H154.818C156.427 98.2727 157.5 99.3455 157.5 100.955C157.5 102.564 156.427 103.636 154.818 103.636ZM154.818 87.5455H101.182C99.5727 87.5455 98.5 86.4727 98.5 84.8636C98.5 83.2545 99.5727 82.1818 101.182 82.1818H154.818C156.427 82.1818 157.5 83.2545 157.5 84.8636C157.5 86.4727 156.427 87.5455 154.818 87.5455ZM173.591 50H82.4091C74.9 50 69 55.9 69 63.4091V192.136C69 199.645 74.9 205.545 82.4091 205.545H173.591C181.1 205.545 187 199.645 187 192.136V63.4091C187 55.9 181.1 50 173.591 50ZM128 197.5C125.05 197.5 122.636 195.086 122.636 192.136C122.636 189.186 125.05 186.773 128 186.773C130.95 186.773 133.364 189.186 133.364 192.136C133.364 195.086 130.95 197.5 128 197.5ZM176.273 162.903C176.005 168.803 170.909 173.63 165.009 173.362H90.9909C85.0909 173.63 79.9955 169.071 79.7273 162.903V71.1848C79.9955 65.2848 85.0909 60.4576 90.9909 60.7257H164.739C170.639 60.4576 175.735 65.0166 176.003 71.1848V162.903H176.273Z" fill="#9692CF"/>
</svg>
