<svg width="256" height="256" viewBox="0 0 256 256" fill="none" xmlns="http://www.w3.org/2000/svg">
<path d="M65.8979 196.055H189.103C199.497 196.055 208 187.552 208 177.159L207.999 78.8966C207.999 68.5031 199.496 60 189.102 60H65.8966C55.5031 60 47 68.5031 47 78.8966V177.159C47 187.552 55.5031 196.057 65.8966 196.057L65.8979 196.055ZM62.1176 177.159V150.892L109.359 120.091L167.371 180.938H65.8969C63.8182 180.938 62.1165 179.237 62.1165 177.159H62.1176ZM189.102 180.938H188.157L146.396 137.098L163.592 120.847L192.882 149.003V177.159C192.882 179.238 191.18 180.938 189.102 180.938L189.102 180.938ZM65.8969 75.1169H189.102C191.181 75.1169 192.881 76.8173 192.881 78.8959V128.027L168.882 104.785C166.048 101.951 161.324 101.951 158.489 104.785L136.002 126.137L115.972 105.161C113.515 102.516 109.357 102.138 106.335 104.028L62.1169 132.751V78.8957C62.1169 76.8171 63.8186 75.1168 65.8972 75.1168L65.8969 75.1169Z" fill="#9692CF"/>
</svg>
