<svg width="256" height="256" viewBox="0 0 256 256" fill="none" xmlns="http://www.w3.org/2000/svg">
<path d="M88.9987 161.733C88.9188 160.162 89.2537 158.596 89.9729 157.197C90.6921 155.795 91.7701 154.612 93.0946 153.762C99.1971 150.482 103.937 145.143 106.472 138.696C109.005 132.249 109.169 125.111 106.933 118.553C104.697 111.997 100.205 106.446 94.2592 102.892C88.3117 99.3371 81.2965 98.0074 74.4633 99.1416C67.6283 100.276 61.417 103.799 56.9386 109.083C52.4584 114.368 50 121.07 50 127.998H69.5004C69.5021 125.69 70.325 123.455 71.8195 121.696C73.3158 119.938 75.3867 118.765 77.6652 118.39C79.9435 118.015 82.2812 118.46 84.2621 119.647C86.243 120.834 87.7374 122.685 88.4804 124.872C89.2234 127.058 89.1673 129.437 88.3206 131.586C87.4739 133.734 85.8909 135.512 83.8574 136.604C79.4163 139.103 75.737 142.761 73.2086 147.186C70.6801 151.611 69.3983 156.638 69.5003 161.733V171.874H89.0007L88.9987 161.733Z" fill="#9692CF"/>
<path d="M69.4985 186.5H88.9989V206H69.4985V186.5Z" fill="#9692CF"/>
<path d="M98.7484 50C93.5762 50 88.6167 52.0539 84.9592 55.7111C81.3016 59.3683 79.248 64.3281 79.248 69.5004V84.1262H98.7484V69.5004H157.248V98.7499H186.498V186.5H108.498V206H186.498C191.67 206 196.629 203.946 200.287 200.289C203.945 196.632 205.998 191.672 205.998 186.5V84.9563L171.044 50.0022L98.7484 50Z" fill="#9692CF"/>
</svg>
