<svg width="256" height="256" viewBox="0 0 256 256" fill="none" xmlns="http://www.w3.org/2000/svg">
<path d="M60.7925 106.071C54.8513 106.071 50 110.967 50 116.918V162.509C50 168.46 54.8513 173.356 60.7925 173.356H151.349C157.29 173.356 162.141 168.46 162.141 162.509V116.918C162.141 110.967 157.29 106.071 151.349 106.071H60.7925ZM69.6248 122.892H78.0355C84.1995 122.892 89.2497 127.943 89.2497 134.107C89.2497 140.27 84.1995 145.321 78.0355 145.321H72.4284V153.731C72.4284 154.475 72.133 155.188 71.6074 155.714C71.0817 156.24 70.3683 156.535 69.6248 156.535C68.0766 156.535 66.8213 155.28 66.8213 153.731V125.696C66.8213 124.148 68.0766 122.892 69.6248 122.892ZM97.6603 122.892H100.065C109.515 122.892 117.285 130.401 117.285 139.714C117.285 149.027 109.515 156.535 100.065 156.535H97.6603C96.1121 156.535 94.8568 155.28 94.8568 153.731V125.696C94.8568 124.148 96.1121 122.892 97.6603 122.892ZM125.696 122.892H142.517C143.261 122.892 143.974 123.188 144.5 123.713C145.025 124.239 145.321 124.952 145.321 125.696C145.321 126.439 145.025 127.153 144.5 127.678C143.974 128.204 143.261 128.499 142.517 128.499H128.499V136.543H142.517C143.261 136.543 143.974 136.839 144.5 137.364C145.025 137.89 145.321 138.603 145.321 139.347C145.321 140.09 145.025 140.804 144.5 141.329C143.974 141.855 143.261 142.15 142.517 142.15H128.499V153.731C128.499 154.475 128.204 155.188 127.678 155.714C127.153 156.24 126.439 156.535 125.696 156.535C124.148 156.535 122.892 155.28 122.892 153.731V125.696C122.892 124.148 124.148 122.892 125.696 122.892ZM72.4284 128.499V139.714H78.0355C81.1907 139.714 83.6426 137.262 83.6426 134.107C83.6426 130.951 81.1907 128.499 78.0355 128.499H72.4284ZM100.464 128.576V150.851C106.783 150.639 111.678 145.796 111.678 139.713C111.678 133.63 106.783 128.788 100.464 128.575V128.576Z" fill="#9692CF"/>
<path d="M103.269 50C95.5514 50 89.251 56.3005 89.251 64.0177V100.464H151.352C160.373 100.464 167.752 107.92 167.752 116.918V162.509C167.752 171.508 160.374 178.963 151.352 178.963H89.251V192.981C89.251 200.698 95.5514 206.999 103.269 206.999H192.982C200.7 206.999 207 200.698 207 192.981V94.8568H173.357C167.193 94.8568 162.143 89.8066 162.143 83.6426V50H103.269ZM167.75 51.3192V83.6417C167.75 86.7969 170.202 89.2488 173.357 89.2488H205.144C204.857 88.852 204.562 88.4616 204.218 88.1098L169.755 52.8236C169.159 52.2141 168.471 51.736 167.751 51.3179L167.75 51.3192Z" fill="#9692CF"/>
</svg>
