<svg width="256" height="256" viewBox="0 0 256 256" fill="none" xmlns="http://www.w3.org/2000/svg">
<path d="M186.393 139.143H69.3214C66.3949 139.143 64 141.538 64 144.464V155.107C64 158.044 66.3949 160.429 69.3214 160.429H186.393C189.33 160.429 191.714 158.044 191.714 155.107V144.464C191.714 141.538 189.33 139.143 186.393 139.143ZM186.393 96.5714H69.3214C66.3949 96.5714 64 98.9664 64 101.893V112.536C64 115.473 66.3949 117.857 69.3214 117.857H186.393C189.33 117.857 191.714 115.473 191.714 112.536V101.893C191.714 98.9664 189.33 96.5714 186.393 96.5714ZM133.179 181.714H69.3214C66.3949 181.714 64 184.109 64 187.036V197.679C64 200.615 66.3949 203 69.3214 203H133.179C136.115 203 138.5 200.615 138.5 197.679V187.036C138.5 184.109 136.115 181.714 133.179 181.714ZM186.393 54H69.3214C66.3949 54 64 56.3949 64 59.3214V69.9643C64 72.9012 66.3949 75.2857 69.3214 75.2857H186.393C189.33 75.2857 191.714 72.9012 191.714 69.9643V59.3214C191.714 56.3949 189.33 54 186.393 54Z" fill="#9692CF"/>
</svg>
