<svg width="256" height="256" viewBox="0 0 256 256" fill="none" xmlns="http://www.w3.org/2000/svg">
<path d="M221.01 66.5559C218.327 62.1473 213.343 59.655 208.167 60.0387H192.065H47.7196C42.1612 60.0387 37.5599 61.7636 34.4924 66.5559C33.5337 68.4734 32.7675 70.3895 32 72.4981V182.53C32.575 184.639 33.5337 186.556 34.4924 188.472C37.1761 192.69 41.9685 195.182 46.9518 194.99H49.0605H207.399C212.958 194.99 217.75 193.265 220.818 188.472C221.776 186.555 222.543 184.639 223.31 182.53L223.311 72.4981C222.736 70.3894 221.969 68.4718 221.01 66.5559ZM118.454 70.3895H138.39C138.965 70.3895 139.348 70.7732 139.54 71.1556V83.9991H117.111V78.248V71.7307C116.92 71.1558 117.303 70.5808 117.878 70.3882C118.07 70.3896 118.262 70.3895 118.454 70.3895ZM64.0132 184.639C63.6295 184.639 63.0545 184.83 62.6707 184.83H43.5014C42.3514 184.83 41.7764 184.639 41.7764 183.296V171.219H64.0132V184.639ZM64.7808 83.0412C64.5896 83.6162 64.397 84 63.822 84.1912H43.1191C42.9279 84.1912 42.5441 84.1912 42.3529 84V71.1565C42.5441 70.7727 42.9279 70.3903 43.3117 70.3903H63.4398C64.0148 70.1991 64.3986 70.5815 64.5898 71.1565V71.5403C64.781 75.3738 64.7808 79.2074 64.7808 83.0412ZM101.394 184.639C100.819 184.639 100.435 184.83 100.052 184.83H80.8824C80.1162 185.021 79.5399 184.639 79.1574 183.871V183.105V171.028H101.394V184.639ZM102.16 82.8495C102.352 83.4245 101.969 84.192 101.394 84.3833H100.819H81.0748C80.4998 84.3833 80.1161 83.9995 79.7323 83.6171V70.7736H81.266H100.435C101.202 70.5824 101.778 70.9648 102.16 71.7323V72.4985L102.16 82.8495ZM138.774 184.639C138.199 184.639 137.815 184.83 137.24 184.83H118.071C116.921 184.83 116.537 184.639 116.537 183.296V172.369C116.537 171.985 116.537 171.603 116.728 171.027H138.772L138.774 184.639ZM141.074 132.69L119.03 146.301C114.621 149.176 110.979 147.067 110.979 141.892V113.137C110.979 107.769 114.621 105.852 119.03 108.728L141.074 122.338C145.482 125.214 145.482 129.814 141.074 132.69ZM176.154 184.064C175.963 184.448 175.579 184.83 175.195 184.83H154.876C154.492 184.83 154.11 184.446 153.917 184.064V171.22H176.154L176.154 184.064ZM176.921 82.8495C176.921 83.6157 176.921 84.192 175.963 84.192H154.876V70.3901H164.844H175.771C176.346 70.1989 176.921 70.5813 177.114 71.1563V71.7313C176.729 75.5648 176.921 79.2074 176.921 82.8495ZM213.535 184.639H191.299V171.221H213.343V184.639H213.535ZM214.302 83.0412C214.302 83.8074 214.111 84.3837 213.152 84.3837H192.833C192.642 84.3837 192.258 84.3837 192.067 84.1925V70.5816H193.601H212.77C213.536 70.3904 214.113 70.7728 214.495 71.5403V72.3065C214.11 75.7577 214.302 79.4004 214.302 83.0412Z" fill="#9692CF"/>
</svg>
